<svg xmlns="http://www.w3.org/2000/svg" xmlns:xlink="http://www.w3.org/1999/xlink" width="50" height="50" viewBox="0 0 50 50">
  <defs>
    <clipPath id="clip-path">
      <rect id="長方形_53" data-name="長方形 53" width="50" height="50" fill="#fff" stroke="#707070" stroke-width="1"/>
    </clipPath>
  </defs>
  <g id="マスクグループ_10" data-name="マスクグループ 10" clip-path="url(#clip-path)">
    <g id="hot_tub_black_24dp" transform="translate(0.3)">
      <path id="パス_233" data-name="パス 233" d="M0,0H50V50H0Z" fill="none"/>
      <circle id="楕円形_93" data-name="楕円形 93" cx="4.167" cy="4.167" r="4.167" transform="translate(10.417 8.333)" fill="#fff"/>
      <path id="パス_234" data-name="パス 234" d="M26.563,30a10.009,10.009,0,0,1-1.708-1.5l-2.917-3.229A4.469,4.469,0,0,0,20.5,24.229a4.636,4.636,0,0,0-2-.479h-.062a4.7,4.7,0,0,0-4.688,4.688V30H7.5V46.667a4.179,4.179,0,0,0,4.167,4.167H45a4.179,4.179,0,0,0,4.167-4.167V30ZM17.917,46.667H13.75v-12.5h4.167Zm8.333,0H22.083v-12.5H26.25Zm8.333,0H30.417v-12.5h4.167Zm8.333,0H38.75v-12.5h4.167ZM39.625,20.021a5.262,5.262,0,0,1,1.4,4.583l-.229,1.229h3.979l.125-.9a8.826,8.826,0,0,0-2.708-7.729l-.146-.146a5.262,5.262,0,0,1-1.4-4.583l.188-1.229H36.9l-.125.9a8.944,8.944,0,0,0,2.708,7.75Zm-8.333,0a5.262,5.262,0,0,1,1.4,4.583l-.229,1.229h3.979l.125-.9a8.826,8.826,0,0,0-2.708-7.729l-.146-.146a5.262,5.262,0,0,1-1.4-4.583L32.5,11.25H28.563l-.125.9a8.944,8.944,0,0,0,2.708,7.75l.146.125Z" transform="translate(-3.333 -5)" fill="#fff"/>
    </g>
  </g>
</svg>
