<svg xmlns="http://www.w3.org/2000/svg" xmlns:xlink="http://www.w3.org/1999/xlink" width="50" height="50" viewBox="0 0 50 50">
  <defs>
    <clipPath id="clip-path">
      <rect id="長方形_54" data-name="長方形 54" width="50" height="50" transform="translate(-0.49)" fill="#fff" stroke="#707070" stroke-width="1"/>
    </clipPath>
  </defs>
  <g id="マスクグループ_11" data-name="マスクグループ 11" transform="translate(0.49)" clip-path="url(#clip-path)">
    <g id="menu_book_black_24dp">
      <g id="グループ_55" data-name="グループ 55">
        <rect id="長方形_55" data-name="長方形 55" width="50" height="50" transform="translate(-0.49)" fill="none"/>
      </g>
      <g id="グループ_58" data-name="グループ 58" transform="translate(1.702 9.375)">
        <g id="グループ_57" data-name="グループ 57">
          <path id="パス_235" data-name="パス 235" d="M45.833,19.792a24.593,24.593,0,0,0-7.292-1.042c-4.062,0-8.437.833-11.458,3.125-3.021-2.292-7.4-3.125-11.458-3.125s-8.437.833-11.458,3.125V52.4a1.12,1.12,0,0,0,1.042,1.042c.208,0,.313-.1.521-.1a25.428,25.428,0,0,1,9.9-2.292c4.063,0,8.438.833,11.458,3.125a25.094,25.094,0,0,1,11.458-3.125,21.2,21.2,0,0,1,9.9,2.188.939.939,0,0,0,.521.1A1.12,1.12,0,0,0,50,52.292V21.875A14.21,14.21,0,0,0,45.833,19.792Zm0,28.125a24.209,24.209,0,0,0-7.292-1.042A25.094,25.094,0,0,0,27.083,50V26.042a25.094,25.094,0,0,1,11.458-3.125,24.209,24.209,0,0,1,7.292,1.042Z" transform="translate(-4.167 -18.75)" fill="#fff"/>
          <g id="グループ_56" data-name="グループ 56" transform="translate(25 9.375)">
            <path id="パス_236" data-name="パス 236" d="M63.542,40.625a24.363,24.363,0,0,1,5.208.542V38a28.132,28.132,0,0,0-5.208-.5,23.973,23.973,0,0,0-9.375,1.729v3.458A19.34,19.34,0,0,1,63.542,40.625Z" transform="translate(-54.167 -37.5)" fill="#fff"/>
            <path id="パス_237" data-name="パス 237" d="M54.167,50.313v3.458a19.341,19.341,0,0,1,9.375-2.062,24.363,24.363,0,0,1,5.208.542V49.083a28.132,28.132,0,0,0-5.208-.5A24.356,24.356,0,0,0,54.167,50.313Z" transform="translate(-54.167 -43.042)" fill="#fff"/>
            <path id="パス_238" data-name="パス 238" d="M63.542,59.708a23.973,23.973,0,0,0-9.375,1.729V64.9a19.341,19.341,0,0,1,9.375-2.062,24.362,24.362,0,0,1,5.208.542V60.208A26.452,26.452,0,0,0,63.542,59.708Z" transform="translate(-54.167 -48.604)" fill="#fff"/>
          </g>
        </g>
      </g>
    </g>
  </g>
</svg>
