<svg xmlns="http://www.w3.org/2000/svg" xmlns:xlink="http://www.w3.org/1999/xlink" width="82" height="82" viewBox="0 0 82 82">
  <defs>
    <clipPath id="clip-path">
      <rect id="SVGID" width="82" height="82" transform="translate(0 0)" fill="none"/>
    </clipPath>
  </defs>
  <g id="グループ_43" data-name="グループ 43" transform="translate(0)">
    <g id="グループ_42" data-name="グループ 42" transform="translate(0 0)" clip-path="url(#clip-path)">
      <g id="マスクグループ_10" data-name="マスクグループ 10" transform="translate(11.9 0.171)">
        <g id="html5-original-wordmark">
          <path id="パス_233" data-name="パス 233" d="M120.377,229.753l-5.264-59.036h57.835l-5.268,59.026L144,236.31Z" transform="translate(-115.113 -154.674)" fill="#ff6584"/>
          <path id="パス_234" data-name="パス 234" d="M185.189,238.163l19.138-5.306,4.5-50.44H185.189Z" transform="translate(-156.271 -161.546)" fill="#ff6584"/>
          <path id="パス_235" data-name="パス 235" d="M159.347,214.617h-9.581l-.66-7.415h10.242v-7.241H141.191l.173,1.943,1.78,19.952h16.2Zm0,18.8-.032.009-8.063-2.178-.516-5.774h-7.268l1.014,11.368,14.831,4.118.033-.01Z" transform="translate(-130.43 -171.85)" fill="#ebebeb"/>
          <path id="パス_236" data-name="パス 236" d="M128.153,131.84h3.679v3.636H135.2V131.84h3.68v11.009H135.2v-3.686h-3.366v3.686h-3.68Zm15.563,3.651h-3.239V131.84h10.16v3.651H147.4v7.358h-3.68v-7.358Zm8.533-3.651h3.838l2.36,3.868,2.358-3.868h3.838v11.009h-3.665v-5.457l-2.53,3.914h-.064l-2.533-3.914v5.457h-3.6V131.84Zm14.224,0h3.681v7.371h5.174v3.639h-8.855V131.84Z" transform="translate(-122.772 -131.84)" fill="#f4f4f4"/>
          <path id="パス_237" data-name="パス 237" d="M185.129,214.617v7.24h8.916l-.84,9.39-8.075,2.18v7.532l14.843-4.114.109-1.224,1.7-19.061.177-1.944h-16.83Zm0-14.656V207.2h17.489l.144-1.628.33-3.67.173-1.943Z" transform="translate(-156.236 -171.85)" fill="#fff"/>
        </g>
      </g>
    </g>
  </g>
</svg>
