<svg xmlns="http://www.w3.org/2000/svg" xmlns:xlink="http://www.w3.org/1999/xlink" width="68" height="68" viewBox="0 0 68 68">
  <defs>
    <clipPath id="clip-path">
      <rect id="SVGID" width="68" height="68" transform="translate(0.108 0)" fill="none"/>
    </clipPath>
  </defs>
  <g id="グループ_46" data-name="グループ 46" transform="translate(-0.108 0)" clip-path="url(#clip-path)">
    <g id="マスクグループ_12" data-name="マスクグループ 12" transform="translate(-0.309 -0.186)">
      <g id="javascript-original">
        <path id="パス_245" data-name="パス 245" d="M773.293,164.939h67.976v67.976H773.293Z" transform="translate(-773.293 -164.939)" fill="#ff6584"/>
        <path id="パス_246" data-name="パス 246" d="M861.134,260.592c-.5-3.1-2.52-5.706-8.51-8.135-2.081-.956-4.4-1.641-5.092-3.219a3.5,3.5,0,0,1-.124-1.99c.446-1.8,2.6-2.365,4.3-1.848a4.735,4.735,0,0,1,2.765,2.565c2.933-1.9,2.927-1.887,4.975-3.192a12.74,12.74,0,0,0-1.641-2.2c-1.764-1.97-4.168-2.986-8.013-2.908l-2,.259a9.087,9.087,0,0,0-4.82,2.843,8.9,8.9,0,0,0,1.616,12.671c3.858,2.9,9.524,3.554,10.248,6.261.7,3.314-2.435,4.387-5.557,4.006-2.3-.478-3.579-1.647-4.963-3.773-2.546,1.473-2.546,1.473-5.163,2.979a11.444,11.444,0,0,0,2.313,3.147c4.924,4.993,17.246,4.749,19.456-2.811a9.348,9.348,0,0,0,.206-4.659ZM835.675,240.07h-6.358l-.026,16.438c0,3.5.181,6.7-.388,7.683-.93,1.932-3.343,1.692-4.439,1.318a5.458,5.458,0,0,1-2.345-2.435,3.231,3.231,0,0,0-.362-.581l-5.169,3.166a10.212,10.212,0,0,0,3.748,4.292,12.348,12.348,0,0,0,9.085,1.118,8.024,8.024,0,0,0,5.13-4.019c1.448-2.669,1.137-5.9,1.124-9.472.033-5.831,0-11.659,0-17.507Z" transform="translate(-798.721 -208.828)" fill="#fff"/>
      </g>
    </g>
  </g>
</svg>
