<svg xmlns="http://www.w3.org/2000/svg" xmlns:xlink="http://www.w3.org/1999/xlink" width="88" height="88" viewBox="0 0 88 88">
  <defs>
    <clipPath id="clip-path">
      <rect id="SVGID" width="88" height="88" transform="translate(-0.478 0)" fill="none"/>
    </clipPath>
  </defs>
  <g id="グループ_50" data-name="グループ 50" transform="translate(0.478 0)" clip-path="url(#clip-path)">
    <g id="マスクグループ_15" data-name="マスクグループ 15" transform="translate(-0.229 28.609)">
      <g id="rails-plain-wordmark">
        <path id="パス_251" data-name="パス 251" d="M654.972,513.976h-3.659v-1.864h7.25v-4.074h-6.9a4.255,4.255,0,0,0-4.212,4.212v1.381a4.15,4.15,0,0,0,4.212,4.143h3.452v1.933l-7.457.069v4.074h7.318a4.147,4.147,0,0,0,4.143-4.142v-1.588a4.1,4.1,0,0,0-4.063-4.143Z" transform="translate(-570.668 -492.711)" fill="#ff6584"/>
        <path id="パス_252" data-name="パス 252" d="M543.749,513.061a5.369,5.369,0,0,0-4.764-5.523h-8.493v15.949h4.281v-3.8l3.728,3.867h6.352l-5.04-5.109S543.749,518.1,543.749,513.061Zm-5.593,2.139H534.7v-3.66h3.452a1.766,1.766,0,0,1,.966,1.8C539.123,514.857,538.156,515.2,538.156,515.2Z" transform="translate(-501.976 -492.417)" fill="#ff6584"/>
        <path id="パス_253" data-name="パス 253" d="M576.129,507.872h-4.35a4.178,4.178,0,0,0-4.143,4.143v11.669h4.35v-2.762h4.074v2.762h4.212V512.015A4.092,4.092,0,0,0,576.129,507.872Zm-.069,8.493h-4.143V512.5s0-.9,1.381-.9h1.519c1.174,0,1.243.9,1.243.9Z" transform="translate(-523.792 -492.613)" fill="#ff6584"/>
        <rect id="長方形_54" data-name="長方形 54" width="4.557" height="15.812" transform="translate(58.481 15.259)" fill="#ff6584"/>
        <path id="パス_254" data-name="パス 254" d="M623.155,507.872h-4.488v15.812h10.564V519.61h-6.076Z" transform="translate(-553.765 -492.613)" fill="#ff6584"/>
        <path id="パス_255" data-name="パス 255" d="M513.57,487.346c.413-.345.759-.621.759-.621s-11.6-11.6-24.58-10.288c-6.49.553-14.5,6.49-19.195,14.293a37.829,37.829,0,0,0-5.316,14.43h17.676s-3.384-15.4,7.8-21.611C493.133,482.375,500.937,477.956,513.57,487.346Z" transform="translate(-463.651 -474.09)" fill="#ff6584"/>
        <path id="パス_256" data-name="パス 256" d="M551.273,474.834a7.466,7.466,0,0,0-2.141-.759l-.069,1.45c.759.276,1.45.553,2.14.829Z" transform="translate(-512.884 -472.763)" fill="#ff6584"/>
        <path id="パス_257" data-name="パス 257" d="M551.273,492.63l.069-1.381c-.759-.138-1.519-.206-2.209-.276l-.069,1.381A12.107,12.107,0,0,1,551.273,492.63Z" transform="translate(-512.884 -482.688)" fill="#ff6584"/>
        <path id="パス_258" data-name="パス 258" d="M525.815,472.277h.206l-.413-1.381c-.69,0-1.381.069-2.14.138l.413,1.312A17.592,17.592,0,0,1,525.815,472.277Z" transform="translate(-497.851 -470.896)" fill="#ff6584"/>
        <path id="パス_259" data-name="パス 259" d="M532.146,494.688a11.207,11.207,0,0,1,1.933-.759l-.483-1.45a8.006,8.006,0,0,0-1.933.69Z" transform="translate(-502.664 -483.572)" fill="#ff6584"/>
        <path id="パス_260" data-name="パス 260" d="M503.237,477.769,502.2,476.25a13.428,13.428,0,0,0-1.657.9l1.036,1.588C502.131,478.39,502.684,478.045,503.237,477.769Z" transform="translate(-484.387 -474.041)" fill="#ff6584"/>
        <path id="パス_261" data-name="パス 261" d="M518.277,502.029l1.1,1.588a14.554,14.554,0,0,1,1.312-1.588l-1.036-1.519A13.762,13.762,0,0,0,518.277,502.029Z" transform="translate(-494.802 -488.289)" fill="#ff6584"/>
        <path id="パス_262" data-name="パス 262" d="M511.1,515.736a11.721,11.721,0,0,0-.69,2.417l1.8,1.45a17.486,17.486,0,0,1,.483-2.624Z" transform="translate(-490.184 -497.232)" fill="#ff6584"/>
        <path id="パス_263" data-name="パス 263" d="M482.035,494.028l-1.588-1.381c-.552.553-1.174,1.1-1.657,1.657l1.726,1.45A18.112,18.112,0,0,1,482.035,494.028Z" transform="translate(-471.61 -483.671)" fill="#ff6584"/>
        <path id="パス_264" data-name="パス 264" d="M465.049,518.71l-2.555-.966c-.413.966-.9,2.072-1.1,2.693l2.556.965C464.221,520.644,464.7,519.539,465.049,518.71Z" transform="translate(-461.39 -498.412)" fill="#ff6584"/>
        <path id="パス_265" data-name="パス 265" d="M509.577,535.312a22.914,22.914,0,0,0,.276,2.831l2.693.966c-.206-.9-.413-1.864-.553-2.9Z" transform="translate(-489.692 -508.73)" fill="#ff6584"/>
      </g>
    </g>
  </g>
</svg>
