<svg xmlns="http://www.w3.org/2000/svg" xmlns:xlink="http://www.w3.org/1999/xlink" width="69" height="68" viewBox="0 0 69 68">
  <defs>
    <clipPath id="clip-path">
      <rect id="SVGID" width="69" height="68" transform="translate(0 0)" fill="none"/>
    </clipPath>
  </defs>
  <g id="グループ_49" data-name="グループ 49" transform="translate(0)">
    <g id="グループ_48" data-name="グループ 48" transform="translate(0 0)" clip-path="url(#clip-path)">
      <g id="マスクグループ_13" data-name="マスクグループ 13" transform="translate(6.128 0.045)">
        <g id="react-original-wordmark">
          <path id="パス_248" data-name="パス 248" d="M161.451,498.842a5.1,5.1,0,1,1-5.1,5.1,5.1,5.1,0,0,1,5.1-5.1Z" transform="translate(-133.565 -479.062)" fill="#ff6584"/>
          <path id="パス_247" data-name="パス 247" d="M129.013,494.522c4,3.89,7.944,6.19,11.122,6.19a5.5,5.5,0,0,0,2.847-.712c2.847-1.644,3.89-5.753,2.9-11.615-.165-1.041-.383-2.082-.657-3.177,1.1-.33,2.082-.657,3.068-.986,5.537-2.136,8.6-5.1,8.6-8.327,0-3.287-3.068-6.246-8.6-8.328a25.21,25.21,0,0,0-3.068-.986c.274-1.1.493-2.137.657-3.178.931-5.972-.11-10.136-2.958-11.779a5.509,5.509,0,0,0-2.847-.712c-3.123,0-7.122,2.3-11.122,6.19-3.946-3.891-7.892-6.19-11.069-6.19a5.508,5.508,0,0,0-2.847.712c-2.847,1.644-3.89,5.753-2.9,11.615.165,1.041.383,2.082.657,3.177-1.1.33-2.082.657-3.068.986-5.534,2.137-8.6,5.1-8.6,8.328,0,3.287,3.068,6.246,8.6,8.328a25.061,25.061,0,0,0,3.068.986c-.274,1.1-.493,2.137-.657,3.178-.931,5.862.11,10.028,2.9,11.615a5.5,5.5,0,0,0,2.847.712c3.178.11,7.122-2.192,11.122-6.025Zm-3.068-7.4c.986.055,2.027.055,3.068.055s2.082,0,3.068-.055c-.986,1.315-2.027,2.52-3.068,3.673C127.972,489.646,126.931,488.441,125.945,487.126Zm-6.794-5.643c.548.931,1.041,1.808,1.644,2.685-1.7-.219-3.287-.493-4.821-.822.493-1.479,1.041-3.012,1.7-4.548.438.876.931,1.808,1.479,2.685Zm-3.178-13.205c1.534-.33,3.123-.6,4.821-.822-.548.876-1.1,1.753-1.644,2.685s-1.041,1.808-1.479,2.739a36.547,36.547,0,0,1-1.7-4.6Zm3.012,7.506c.712-1.479,1.479-2.958,2.356-4.438.822-1.424,1.753-2.847,2.685-4.273,1.644-.11,3.287-.165,4.986-.165,1.753,0,3.4.055,4.986.165.986,1.424,1.863,2.847,2.685,4.273.876,1.479,1.644,2.958,2.356,4.438-.712,1.479-1.479,2.958-2.356,4.438-.822,1.424-1.753,2.847-2.685,4.274-1.644.11-3.287.165-4.986.165-1.753,0-3.4-.055-4.986-.165-.986-1.425-1.863-2.847-2.685-4.274C120.465,478.742,119.7,477.263,118.986,475.784Zm21.422-2.958-1.479-2.736c-.548-.931-1.041-1.808-1.644-2.685,1.7.219,3.287.493,4.821.822-.493,1.534-1.041,3.068-1.7,4.6Zm0,5.917c.657,1.534,1.205,3.068,1.7,4.548-1.534.33-3.123.6-4.821.822.548-.876,1.1-1.753,1.644-2.685.493-.822.986-1.753,1.479-2.685Zm1.26,19.011a2.966,2.966,0,0,1-1.589.383c-2.685,0-6.025-2.192-9.314-5.479a57.318,57.318,0,0,0,4.657-5.753,50.145,50.145,0,0,0,7.342-1.15,28.307,28.307,0,0,1,.6,2.958c.769,4.658.165,8-1.7,9.041Zm2.847-28.873c6.136,1.753,9.807,4.438,9.807,6.9,0,2.137-2.52,4.273-6.958,5.972-.876.33-1.863.657-2.847.931a57.589,57.589,0,0,0-2.684-6.9,49.629,49.629,0,0,0,2.684-6.9Zm-4.382-15.449a3.107,3.107,0,0,1,1.589.383c1.808,1.041,2.465,4.328,1.7,9.04-.165.931-.383,1.918-.6,2.958a71.244,71.244,0,0,0-7.342-1.151,50.657,50.657,0,0,0-4.657-5.753C134.108,455.678,137.451,453.432,140.133,453.432Zm-8.052,11.012c-.986-.055-2.027-.055-3.068-.055s-2.082,0-3.068.055c.986-1.315,2.027-2.52,3.068-3.673C130.054,461.922,131.095,463.182,132.081,464.444Zm-15.722-10.629a2.973,2.973,0,0,1,1.589-.383c2.685,0,6.025,2.192,9.314,5.479a57.415,57.415,0,0,0-4.657,5.753,50.211,50.211,0,0,0-7.343,1.15,28.316,28.316,0,0,1-.6-2.958c-.767-4.657-.165-7.944,1.7-9.04Zm-2.847,28.873c-6.14-1.753-9.81-4.438-9.81-6.9,0-2.137,2.52-4.274,6.958-5.972.876-.33,1.863-.657,2.847-.931a57.573,57.573,0,0,0,2.686,6.9,52.392,52.392,0,0,0-2.685,6.9Zm1.15,6.025c.165-.931.383-1.918.6-2.958a71.031,71.031,0,0,0,7.342,1.151,50.571,50.571,0,0,0,4.652,5.756c-3.287,3.232-6.629,5.479-9.314,5.479a3.1,3.1,0,0,1-1.589-.383c-1.861-1.043-2.464-4.385-1.7-9.042Zm-2.3,22.573a4.467,4.467,0,0,0,.6-4.767,3.858,3.858,0,0,0-3.726-2.465c-2.027-.055-4.109,0-6.136,0h-.383v14.193h1.644v-5.37h2.575a.83.83,0,0,1,.767.383l3.287,5.1c.055.11.219.274.33.274h2.137c-1.315-2.027-2.575-3.945-3.89-5.917a3.973,3.973,0,0,0,2.789-1.424Zm-8-.11v-5.422h.6c1.26,0,2.575-.055,3.835.055a2.586,2.586,0,0,1,2.521,2.649v.035a2.723,2.723,0,0,1-2.685,2.685c-1.315.055-2.63,0-4.274,0Zm21.2.716a4.942,4.942,0,0,0-7.068-3.616,5.183,5.183,0,0,0-3.068,4.986,5.312,5.312,0,0,0,1.753,4.383,5.816,5.816,0,0,0,5.15,1.15,5.023,5.023,0,0,0,2.685-1.479c-.274-.383-.548-.767-.822-1.1a4.437,4.437,0,0,1-5.1.877,4.07,4.07,0,0,1-1.918-3.177h8.492v-.712A3.385,3.385,0,0,0,125.561,511.892Zm-8.273.875a3.387,3.387,0,0,1,3.287-3.4,3.152,3.152,0,0,1,3.452,3.4ZM134.108,508a9.781,9.781,0,0,0-2.52-.165,5.212,5.212,0,0,0-3.4,1.7c.274.383.493.767.822,1.205a1.464,1.464,0,0,1,.33-.274,3.972,3.972,0,0,1,3.177-1.15,2.125,2.125,0,0,1,2.192,1.37,11.618,11.618,0,0,1,.219,2.411.321.321,0,0,1-.274-.11,4.733,4.733,0,0,0-4.383-.931,3.26,3.26,0,0,0-2.52,3.012,3.345,3.345,0,0,0,2.137,3.561,4.949,4.949,0,0,0,2.958.165c.767-.165,1.1-.6,2.192-1.205v.712h1.534c0-2.192.055-4.876,0-7.4a2.809,2.809,0,0,0-2.465-2.9Zm.767,6.9a1.475,1.475,0,0,0,0,.493c0,1.151-.274,1.534-1.37,1.973a3.631,3.631,0,0,1-2.411.11,2.155,2.155,0,0,1-1.589-2.027,2.122,2.122,0,0,1,1.479-2.137,3.57,3.57,0,0,1,3.452.6.919.919,0,0,1,.438.987Zm8.547-5.424a3.25,3.25,0,0,1,3.726,1.041l.165.11c.383-.33.712-.657,1.151-1.041a2.281,2.281,0,0,1-.33-.438,5.359,5.359,0,0,0-6.629-.548c-2.684,1.972-2.63,5.807-1.315,7.834a5.018,5.018,0,0,0,5.2,2.3,4.62,4.62,0,0,0,3.123-1.808c-.383-.33-.767-.657-1.151-1.041a.966.966,0,0,0-.219.274,3.357,3.357,0,0,1-5.259-.274,4.331,4.331,0,0,1-.712-3.452,3.211,3.211,0,0,1,2.246-2.958Zm11.4,7.451a.688.688,0,0,0-.165.11,1.386,1.386,0,0,1-1.37.219c-.493-.219-.548-.657-.6-1.1v-6.246c0-.11,0,.11.055-.438h2.082v-1.644h-2.192V505.1h-1.644v2.958h-1.424c-.11,0-.274.11-.274.219a8.77,8.77,0,0,0,0,1.205h1.753v7.013a2.172,2.172,0,0,0,.986,2.082,3.175,3.175,0,0,0,3.123-.219c.11-.055.165-.274.165-.33-.165-.326-.33-.71-.494-1.094Z" transform="translate(-101.126 -450.91)" fill="#ff6584"/>
        </g>
      </g>
    </g>
  </g>
</svg>
