<svg xmlns="http://www.w3.org/2000/svg" xmlns:xlink="http://www.w3.org/1999/xlink" viewBox="0 0 275.4 647.61"><defs><style>.cls-1{fill:#535461;}.cls-2{fill:#e0e0e0;}.cls-3{opacity:0.1;}.cls-4{fill:url(#名称未設定グラデーション_7);}.cls-5{fill:url(#名称未設定グラデーション_7-2);}.cls-6{fill:url(#名称未設定グラデーション_7-3);}.cls-7{fill:url(#名称未設定グラデーション_7-4);}.cls-8{fill:#eee;}</style><linearGradient id="名称未設定グラデーション_7" x1="70.13" y1="183.82" x2="70.13" y2="119.42" gradientTransform="matrix(1, 0, 0, -1, -32.41, 767.02)" gradientUnits="userSpaceOnUse"><stop offset="0" stop-color="#e0e0e0"/><stop offset="0.31" stop-color="#fccc63"/><stop offset="0.77" stop-color="#f55f44"/></linearGradient><linearGradient id="名称未設定グラデーション_7-2" x1="147.23" y1="183.82" x2="147.23" y2="119.42" xlink:href="#名称未設定グラデーション_7"/><linearGradient id="名称未設定グラデーション_7-3" x1="195.53" y1="183.82" x2="195.53" y2="119.42" xlink:href="#名称未設定グラデーション_7"/><linearGradient id="名称未設定グラデーション_7-4" x1="273.48" y1="183.82" x2="273.48" y2="119.42" xlink:href="#名称未設定グラデーション_7"/></defs><g id="レイヤー_2" data-name="レイヤー 2"><g id="f1a3512c-954b-43cd-b4a7-b2a657bfa049"><polygon class="cls-1" points="49.58 583.21 25.85 583.21 30.09 554.4 45.34 554.4 49.58 583.21"/><polygon class="cls-1" points="252.93 583.21 229.21 583.21 233.44 554.4 248.7 554.4 252.93 583.21"/><polygon class="cls-1" points="126.68 583.21 102.96 583.21 107.19 554.4 122.45 554.4 126.68 583.21"/><polygon class="cls-1" points="174.98 583.21 151.26 583.21 155.49 554.4 170.74 554.4 174.98 583.21"/><rect class="cls-1" x="49.58" y="316.31" width="169.46" height="6.78"/><path class="cls-2" d="M245.23,209.23a9.55,9.55,0,0,0-13.49-.67,8.47,8.47,0,0,0-.67.67c-4.93,5.26-9.39,12.21-13.28,19.6a154.7,154.7,0,0,0-17.39,72V561.67h75V299.73a154.2,154.2,0,0,0-16.57-70.14C253.62,219.43,248.88,213.07,245.23,209.23Z"/><path class="cls-2" d="M30.16,209.23a9.55,9.55,0,0,1,13.49-.67,8.47,8.47,0,0,1,.67.67c4.94,5.26,9.39,12.21,13.29,19.6a154.82,154.82,0,0,1,17.39,72V561.67H0V299.73a154.33,154.33,0,0,1,16.57-70.14C21.77,219.43,26.51,213.07,30.16,209.23Z"/><polygon class="cls-1" points="0.43 305.29 18.23 305.38 18.23 327.32 0.43 327.32 0.43 305.29"/><polygon class="cls-1" points="200.4 305.29 218.19 305.38 218.19 327.32 200.4 327.32 200.4 305.29"/><polygon class="cls-1" points="257.17 305.29 274.96 305.38 274.96 327.32 257.17 327.32 257.17 305.29"/><g class="cls-3"><path d="M224.57,229.21c3.89-7.39,8.35-14.34,13.28-19.6a9.76,9.76,0,0,1,3.28-2.34,9.52,9.52,0,0,0-10.9,2.34c-4.94,5.26-9.4,12.21-13.29,19.6a154.94,154.94,0,0,0-17.39,72V562.07h7.63V301.23A154.78,154.78,0,0,1,224.57,229.21Z"/></g><path class="cls-4" d="M38,647.61h-.65a11.54,11.54,0,0,1-11.54-11.54V583.21H49.58v52.86A11.54,11.54,0,0,1,38,647.61Z"/><path class="cls-5" d="M115.15,647.61h-.66A11.54,11.54,0,0,1,103,636.07V583.21h23.72v52.86A11.54,11.54,0,0,1,115.15,647.61Z"/><path class="cls-6" d="M163.44,647.61h-.67a11.54,11.54,0,0,1-11.51-11.54V583.21H175v52.86A11.54,11.54,0,0,1,163.44,647.61Z"/><path class="cls-7" d="M241.4,647.61h-.63a11.54,11.54,0,0,1-11.56-11.52V583.21h23.72v52.86A11.54,11.54,0,0,1,241.4,647.61Z"/><path class="cls-8" d="M147.11,4.71a13.19,13.19,0,0,0-18.6-1.61,12.89,12.89,0,0,0-1.61,1.61c-7,7.88-13.4,18.29-19,29.37C91.44,66.92,83.08,104.2,83.08,142V560.61h107V140.32c0-36.73-8-73-23.64-105.1C159.09,20,152.32,10.52,147.11,4.71Z"/><rect class="cls-1" x="107.97" y="51.21" width="55.84" height="25.59" rx="11"/><g class="cls-3"><rect x="83.66" y="156.31" width="105.91" height="4.11"/></g></g></g></svg>