<svg id="レイヤー_1" data-name="レイヤー 1" xmlns="http://www.w3.org/2000/svg" xmlns:xlink="http://www.w3.org/1999/xlink" viewBox="0 0 32.09 28.48"><defs><style>.cls-1{fill:url(#名称未設定グラデーション_5);}.cls-2{fill:#6c63ff;}.cls-3{opacity:0.05;}.cls-11,.cls-12,.cls-13,.cls-3,.cls-5{isolation:isolate;}.cls-4{fill:url(#名称未設定グラデーション_5-2);}.cls-5,.cls-7{fill:none;stroke:#bdbdbd;stroke-miterlimit:10;stroke-width:3px;}.cls-11,.cls-12,.cls-13,.cls-5,.cls-9{opacity:0.5;}.cls-6{fill:url(#名称未設定グラデーション_5-3);}.cls-8{fill:url(#名称未設定グラデーション_5-4);}.cls-10,.cls-13{fill:#47e6b1;}.cls-11{fill:#4d8af0;}.cls-12{fill:#f55f44;}.cls-14{fill:url(#名称未設定グラデーション_5-5);}.cls-15{fill:#4f617d;}.cls-16{fill:#ff656a;}.cls-17{fill:#4a5c81;}.cls-18{fill:#ff6469;}.cls-19{fill:#fff6d5;}.cls-20{fill:#53678b;}.cls-21{fill:#658bc8;}.cls-22{fill:#4a77be;}.cls-23{fill:#cdefff;}</style><linearGradient id="名称未設定グラデーション_5" x1="15.86" y1="5.85" x2="15.86" y2="30.63" gradientTransform="matrix(1, 0, 0, -1, -0.91, 32.36)" gradientUnits="userSpaceOnUse"><stop offset="0" stop-color="gray" stop-opacity="0.25"/><stop offset="0.54" stop-color="gray" stop-opacity="0.12"/><stop offset="1" stop-color="gray" stop-opacity="0.1"/></linearGradient><linearGradient id="名称未設定グラデーション_5-2" x1="201.22" y1="-62.23" x2="201.22" y2="-56.24" gradientTransform="matrix(1, 0, 0, -1, -185, -42.87)" xlink:href="#名称未設定グラデーション_5"/><linearGradient id="名称未設定グラデーション_5-3" x1="195.29" y1="-64.01" x2="195.29" y2="-52.48" gradientTransform="matrix(1, 0, 0, -1, -185, -42.87)" xlink:href="#名称未設定グラデーション_5"/><linearGradient id="名称未設定グラデーション_5-4" x1="210.14" y1="-66.72" x2="210.14" y2="-63.86" gradientTransform="matrix(1, 0, 0, -1, -185, -42.87)" xlink:href="#名称未設定グラデーション_5"/><linearGradient id="名称未設定グラデーション_5-5" x1="918.84" y1="53.91" x2="918.84" y2="58.67" gradientTransform="matrix(0.46, -0.89, -0.89, -0.46, -353.75, 863.34)" xlink:href="#名称未設定グラデーション_5"/></defs><ellipse class="cls-1" cx="14.95" cy="14.12" rx="12.44" ry="12.39"/><ellipse class="cls-2" cx="14.95" cy="14.12" rx="12.13" ry="12.08"/><ellipse class="cls-3" cx="11.03" cy="7.14" rx="1.51" ry="1.5"/><ellipse class="cls-3" cx="15.64" cy="23.21" rx="1.51" ry="1.5"/><ellipse class="cls-3" cx="17.14" cy="12.4" rx="3.08" ry="3.07"/><path class="cls-4" d="M20.73,19.36c-1.52,0-3.15-.07-4.81-.22a44.29,44.29,0,0,1-9.69-1.82c-2.57-.86-4-1.83-3.87-2.74.05-.45.45-.86,1.21-1.21l0,.09c-.72.33-1.1.71-1.14,1.13s.28.88,1,1.34a12.27,12.27,0,0,0,2.85,1.3,44.69,44.69,0,0,0,9.67,1.82,44.62,44.62,0,0,0,9.84-.11,11.62,11.62,0,0,0,3-.78c.74-.33,1.14-.72,1.17-1.15s-.39-1-1.27-1.53l.05-.08c.92.54,1.37,1.09,1.32,1.62-.08.91-1.6,1.62-4.29,2A36.16,36.16,0,0,1,20.73,19.36Z" transform="translate(-0.91 -1.64)"/><path class="cls-5" d="M28.73,15.34c.87.52,1.34,1.06,1.29,1.58-.16,1.82-6.47,2.75-14.09,2.08S2.25,16.31,2.41,14.49c0-.45.46-.84,1.17-1.17" transform="translate(-0.91 -1.64)"/><path class="cls-6" d="M17.42,21.14c-1.1-.47-2.23-1-3.34-1.57a44.45,44.45,0,0,1-8.29-5.31c-2.07-1.76-3-3.17-2.56-4,.21-.41.74-.64,1.57-.67V9.7c-.79,0-1.29.25-1.49.62s-.06.92.38,1.59a11.81,11.81,0,0,0,2.16,2.28,44.23,44.23,0,0,0,8.27,5.3c1.12.56,2.24,1.09,3.33,1.56Z" transform="translate(-0.91 -1.64)"/><path class="cls-7" d="M17.59,21.09Q16,20.4,14.26,19.53C7.45,16.06,2.6,11.93,3.43,10.3c.21-.4.74-.61,1.53-.65" transform="translate(-0.91 -1.64)"/><path class="cls-8" d="M26.34,23.85a14.63,14.63,0,0,1-4.31-1l0-.09c3.63,1.25,5.43,1.3,6,.17.22-.43,0-1.09-.6-1.9l.07-.06c.65.85.86,1.53.61,2A1.81,1.81,0,0,1,26.34,23.85Z" transform="translate(-0.91 -1.64)"/><path class="cls-7" d="M27.51,20.93c.61.8.84,1.48.6,1.95-.55,1.07-2.17,1.18-6.06-.15" transform="translate(-0.91 -1.64)"/><g class="cls-9"><rect class="cls-10" x="3.87" y="25.33" width="0.12" height="0.7"/><rect class="cls-10" x="3.58" y="25.61" width="0.7" height="0.12"/></g><g class="cls-9"><rect class="cls-10" x="29" y="0.12" width="0.12" height="0.7"/><rect class="cls-10" x="28.71" y="0.41" width="0.7" height="0.12"/></g><g class="cls-9"><rect class="cls-10" x="31.68" y="19.17" width="0.12" height="0.7"/><rect class="cls-10" x="31.39" y="19.46" width="0.7" height="0.12"/></g><g class="cls-9"><rect class="cls-10" x="4.28" y="1.81" width="0.12" height="0.7"/><rect class="cls-10" x="3.99" y="2.09" width="0.7" height="0.12"/></g><path class="cls-11" d="M8.84,29.36a.14.14,0,0,1-.08-.18v0h0a.08.08,0,0,0-.07-.08.09.09,0,0,0-.07,0h0v0a.16.16,0,0,1-.19.08h0a.07.07,0,0,0-.08.07.06.06,0,0,0,0,.06h0a.14.14,0,0,1,.08.18v0h0a.08.08,0,0,0,.08.08.09.09,0,0,0,.06,0h0a.16.16,0,0,1,.18-.09h0a.08.08,0,0,0,.07-.08s0-.05,0-.06h0Z" transform="translate(-0.91 -1.64)"/><path class="cls-11" d="M16.38,29.85a.14.14,0,0,1-.08-.18h0a.07.07,0,0,0-.07-.08.09.09,0,0,0-.07,0h0a.15.15,0,0,1-.19.08h0a.07.07,0,0,0-.08.08.09.09,0,0,0,0,.06h0A.15.15,0,0,1,16,30h0a.07.07,0,0,0,.08.08.09.09,0,0,0,.06,0h0a.14.14,0,0,1,.18-.08h0a.07.07,0,0,0,.07-.08s0,0,0-.06h0Z" transform="translate(-0.91 -1.64)"/><path class="cls-11" d="M31.3,10a.16.16,0,0,1-.09-.18v0h0a.09.09,0,0,0-.08-.08l-.06,0h0a.15.15,0,0,1-.18.09h0a.07.07,0,0,0-.05.13h0a.15.15,0,0,1,.08.18v0h0a.08.08,0,0,0,.07.08.06.06,0,0,0,.06,0h0v0a.16.16,0,0,1,.19-.08h0a.07.07,0,0,0,0-.13h0Z" transform="translate(-0.91 -1.64)"/><path class="cls-11" d="M1.93,20.89a.16.16,0,0,1-.09-.18v0h0a.09.09,0,0,0-.08-.08.07.07,0,0,0-.06,0h0v0a.15.15,0,0,1-.18.08h0a.08.08,0,0,0-.08.07.06.06,0,0,0,0,.06h0a.15.15,0,0,1,.08.18v0h0a.08.08,0,0,0,.07.08.06.06,0,0,0,.06,0h0A.16.16,0,0,1,1.87,21h0A.09.09,0,0,0,2,21a.07.07,0,0,0,0-.06h0Z" transform="translate(-0.91 -1.64)"/><circle class="cls-12" cx="0.49" cy="9.11" r="0.25"/><circle class="cls-11" cx="20.64" cy="0.86" r="0.25"/><circle class="cls-13" cx="7.04" cy="0.25" r="0.25"/><circle class="cls-12" cx="25.33" cy="26.47" r="0.25"/><path class="cls-14" d="M20.42,20.37a.28.28,0,0,0-.39.12l0,.06-.07,0-.61-.31-.14-.07h-.06c-.58-.19-1.05.17-1.35.76h0a2,2,0,0,0-.22.63h0a1,1,0,0,0,.11.65v0a.79.79,0,0,0,.23.25.07.07,0,0,0,0,.06l.84.44-.06.12a.28.28,0,0,0,.12.39h0L19,23l1,.53.07-.13.07-.13.1-.19h0l-.23.45.49.26c.6.31,1.06-.09,1.39-.71h0l0,0h0l0,0h0c.32-.63.39-1.23-.22-1.54l-.49-.26-.27.53h0l.14-.27.07-.12.07-.14-1-.54.16-.31Zm-1.57,2.22Z" transform="translate(-0.91 -1.64)"/><polygon class="cls-15" points="18.23 21.2 19.25 19.25 20.23 19.75 19.21 21.7 18.23 21.2"/><path class="cls-16" d="M21.86,23h0c-.32.6-.76,1-1.33.7l-.47-.24,1.14-2.19.47.24C22.25,21.81,22.17,22.39,21.86,23Z" transform="translate(-0.91 -1.64)"/><path class="cls-17" d="M21.86,23Z" transform="translate(-0.91 -1.64)"/><path class="cls-17" d="M21.5,23.51a2.34,2.34,0,0,0,.36-.51,2.85,2.85,0,0,0,.2-.51l-.2-.1-.54,1Z" transform="translate(-0.91 -1.64)"/><path class="cls-17" d="M20.28,23,21,21.76h0l0,0a.16.16,0,0,1,.07.22h0l-.51,1a.16.16,0,0,1-.22.07h0l0,0Z" transform="translate(-0.91 -1.64)"/><path class="cls-18" d="M18.08,22.2l0-.05h0l2.07,1.07h0l-.12.25h0l-1.88-1a.22.22,0,0,1-.1-.29Z" transform="translate(-0.91 -1.64)"/><path class="cls-18" d="M19,20.44l0-.05a.22.22,0,0,1,.3-.09h0l1.88,1h0l-.12.24h0L19,20.44Z" transform="translate(-0.91 -1.64)"/><path class="cls-16" d="M19.92,20.6l-1.14,2.19-.57-.29c-.64-.33-.64-.95-.32-1.56h0c.31-.6.82-1,1.46-.63Z" transform="translate(-0.91 -1.64)"/><path class="cls-19" d="M17.79,22.15l.23-.44-.34-.17A.9.9,0,0,0,17.79,22.15Z" transform="translate(-0.91 -1.64)"/><path class="cls-19" d="M18.82,20.19l-.23.44-.34-.18A.94.94,0,0,1,18.82,20.19Z" transform="translate(-0.91 -1.64)"/><path class="cls-18" d="M18.76,23l.09-.17h0l.24.13h0l-.19.36h0l0,0a.22.22,0,0,1-.09-.3Z" transform="translate(-0.91 -1.64)"/><path class="cls-18" d="M20.39,20.46l-.19.37h0L20,20.7h0l.09-.17a.22.22,0,0,1,.3-.09h0l.05,0Z" transform="translate(-0.91 -1.64)"/><path class="cls-20" d="M20.07,20.91l-1,1.83L18.28,22a.38.38,0,0,1-.08-.46l.35-.68a.4.4,0,0,1,.44-.2Z" transform="translate(-0.91 -1.64)"/><path class="cls-21" d="M19.16,22.68A.93.93,0,0,1,20,21" transform="translate(-0.91 -1.64)"/><polygon class="cls-16" points="19.23 19.31 18.27 21.13 18.09 21.04 18.22 20.94 19 19.44 19.04 19.21 19.23 19.31"/><polygon class="cls-3" points="19.23 19.31 18.27 21.13 18.09 21.04 18.22 20.94 19 19.44 19.04 19.21 19.23 19.31"/><polygon class="cls-20" points="18.62 20.46 18.75 20.22 18.99 20.35 18.86 20.59 18.62 20.46"/><ellipse class="cls-20" cx="19.84" cy="22.11" rx="0.27" ry="0.07" transform="translate(-9.85 27.83) rotate(-62.45)"/><path class="cls-3" d="M20.51,23.38a.47.47,0,0,0,.65-.12l0,0" transform="translate(-0.91 -1.64)"/><path class="cls-3" d="M21.36,21.74a.47.47,0,0,1,.28.61v0" transform="translate(-0.91 -1.64)"/><path class="cls-3" d="M18.4,21.75a1,1,0,0,1,.44-.85" transform="translate(-0.91 -1.64)"/><path class="cls-3" d="M18.63,21.87a1,1,0,0,1,.44-.85" transform="translate(-0.91 -1.64)"/><circle class="cls-22" cx="18.19" cy="20.4" r="0.21"/><circle class="cls-22" cx="18.48" cy="19.7" r="0.14"/><path class="cls-23" d="M19.83,21.85v0a.08.08,0,0,1,.06-.1l.44-.09a.08.08,0,0,1,.1.07h0l0,.12h0l-.53.1A.09.09,0,0,1,19.83,21.85Z" transform="translate(-0.91 -1.64)"/><path class="cls-3" d="M20.09,21.92l0-.2h0l.24,0a.17.17,0,0,1,.2.13h0v0h0l-.41.08Z" transform="translate(-0.91 -1.64)"/><path class="cls-23" d="M19.72,22.78l.17-.32h0l.38.2h0L20.1,23a.17.17,0,0,1-.23.07h0l-.07,0a.17.17,0,0,1-.08-.23Z" transform="translate(-0.91 -1.64)"/><path class="cls-23" d="M20.11,22.94l-.07.14a.3.3,0,0,1-.41.08l-.18-.09.1-.19Z" transform="translate(-0.91 -1.64)"/><path class="cls-23" d="M19.11,22.8l0,0a.08.08,0,0,1,.12,0l.3.15h0l-.1.19h0l-.3-.16A.08.08,0,0,1,19.11,22.8Z" transform="translate(-0.91 -1.64)"/><path class="cls-3" d="M20.05,22.66a.34.34,0,0,0,.2,0v0l-.37-.19A.35.35,0,0,0,20.05,22.66Z" transform="translate(-0.91 -1.64)"/><path class="cls-23" d="M20.63,21.94l-.16.32h0l-.38-.19h0l.16-.32a.18.18,0,0,1,.24-.07h0l.07,0a.17.17,0,0,1,.07.23Z" transform="translate(-0.91 -1.64)"/><path class="cls-3" d="M20.35,22.09a.32.32,0,0,1,.14.14v0l-.37-.19A.33.33,0,0,1,20.35,22.09Z" transform="translate(-0.91 -1.64)"/><circle class="cls-23" cx="19.29" cy="20.72" r="0.32"/><circle class="cls-23" cx="19.27" cy="20.73" r="0.32"/><path class="cls-21" d="M19.9,22.22a.33.33,0,0,0,0,.32.33.33,0,0,0,.31-.34.38.38,0,0,0,0-.15A.3.3,0,0,0,19.9,22.22Z" transform="translate(-0.91 -1.64)"/></svg>