<svg id="レイヤー_1" data-name="レイヤー 1" xmlns="http://www.w3.org/2000/svg" viewBox="0 0 128 119.18"><defs><style>.cls-1{fill:#fff;}</style></defs><g id="surface1"><path class="cls-1" d="M40.25,127.59C88.56,127.59,115,81.73,115,42c0-1.3,0-2.6-.07-3.89A58.34,58.34,0,0,0,128,22.5a47.47,47.47,0,0,1-15.08,4.74,29.88,29.88,0,0,0,11.54-16.65,49.18,49.18,0,0,1-16.68,7.31C99.64,8,86.71,5.55,76.23,12S60.35,32.08,63,45.34C41.92,44.13,22.25,32.7,8.91,13.9,1.93,27.64,5.49,45.24,17,54.08A23.65,23.65,0,0,1,5.19,50.3v.39c0,14.3,8.79,26.63,21,29.5a23,23,0,0,1-11.86.5C17.79,93,27.64,101.37,38.88,101.61A48.58,48.58,0,0,1,6.27,114.46,46.94,46.94,0,0,1,0,114a67.59,67.59,0,0,0,40.25,13.51" transform="translate(0 -8.41)"/></g></svg>