<svg xmlns="http://www.w3.org/2000/svg" viewBox="0 0 195.59 652"><defs><style>.cls-1{fill:#f2f2f2;}.cls-2{opacity:0.1;}.cls-3{fill:#3f3d56;}.cls-4{fill:#6c63ff;}</style></defs><g id="レイヤー_2" data-name="レイヤー 2"><g id="e4da07c6-3f45-486e-a553-879e7f222c67"><path class="cls-1" d="M176.75,295.19c0,279.05-35.09,279.05-78.36,279.05-22.37,0-42.55,0-56.82-38.55-4.11-11.08-7.73-25.36-10.77-43.75C24,450.61,20,388.5,20,295.19c0-35.87,4.25-71.05,10.77-103.9,3.13-15.81,6.8-31.08,10.77-45.64,4.85-17.82,10.18-34.58,15.55-49.92,3.6-10.31,7.24-20,10.77-28.93C84.19,25.55,98.39,0,98.39,0S176.75,141.08,176.75,295.19Z"/><g class="cls-2"><path d="M67.89,66.8V553.3H57.12V95.73C60.72,85.42,64.36,75.74,67.89,66.8Z"/></g><circle class="cls-3" cx="96" cy="192.61" r="43.07" transform="translate(-109.5 256.52) rotate(-80.78)"/><path class="cls-4" d="M190.51,547.92c-9.58-23.57-21.87-27.64-29.91-27.29v-3.82H35v3.82c-8-.35-20.33,3.72-29.91,27.29C-10.47,586.2,14.65,652,14.65,652S1.22,560.23,45.81,559.63a52.76,52.76,0,0,0,14,12.69V597h72V574.57a52.79,52.79,0,0,0,18-14.94c44.59.6,31.16,92.37,31.16,92.37S206.06,586.2,190.51,547.92Z"/><circle class="cls-4" cx="96" cy="192.61" r="33.5"/></g></g></svg>