<svg xmlns="http://www.w3.org/2000/svg" viewBox="0 0 141.99 453.4"><defs><style>.cls-1{fill:#e6e6e6;}.cls-2{fill:#fff;}.cls-3{fill:#6c63ff;}.cls-4{fill:#f2f2f2;}</style></defs><g id="レイヤー_2" data-name="レイヤー 2"><g id="e4da07c6-3f45-486e-a553-879e7f222c67"><rect class="cls-1" x="93.99" y="8.05" width="2.87" height="58.06"/><polygon class="cls-1" points="28.74 162.41 2.29 223.34 7.47 231.97 5.74 234.84 17.82 241.16 17.82 237.72 22.42 236.56 41.96 200.92 28.74 162.41"/><path class="cls-1" d="M8,234.27s-19.54,30.46,2.3,35.06,4-32.19,4-32.19Z"/><path class="cls-2" d="M36.21,220.47l-6.9,22.42-2.87,28.74L21.27,282,27,328.55l9.19,9.2,4,46v20.69l10.92,19-14.07,20a6.37,6.37,0,0,0,5,10c3.11.08,7.2-.8,12.53-3.55,16.67-8.63,16.1-16.67,16.1-16.67s10.34,0,10.92-8.05-6.32-65.54-6.32-65.54L69,334.87V267.61h2.3l1.15,57.49,5.17,21.27.58,9.2,7.47,92s33.35,9.2,35.07,1.72-12.65-12.07-12.65-12.07l8.63-16.67V388.34l-2.88-6.9-5.17-46.57,8.62-9.2,4.6-5.75v-46l-5.75-17.82-1.72-15-9.2-23S63.23,204.37,36.21,220.47Z"/><path class="cls-3" d="M111,90.54A43.69,43.69,0,1,1,32.19,64.48h0A43.69,43.69,0,0,1,111,90.54Z"/><path class="cls-2" d="M99.9,61.51l6,20.79S93.46,119.57,35.8,120.86l-1.89,5.33-6.32,1.72L24.72,140l8,76.46s-3.45,7.48,2.3,6.9c0,0,38-12.64,70.71-1.15,0,0,6.9,2.88,5.18-3.45,0,0,23-14.37,21.27-29.32s1.72-84.5,1.72-84.5,3.45-20.12-6.89-24.72C127.05,80.2,111.85,58.92,99.9,61.51Z"/><path class="cls-1" d="M87.3,206.78s-36,3.61-26,23.59S89,213.52,89,213.52Z"/><path class="cls-1" d="M105.77,117.56s-6.32,7.48-4,19.55,10.92,39.09,10.92,39.09L82.2,204.37,91.4,217l41.39-21.27L142,190h0a238.41,238.41,0,0,0-16.89-67.64l-1.5-3.65S112.67,114.11,105.77,117.56Z"/><circle class="cls-1" cx="102.9" cy="86.52" r="10.64"/><circle class="cls-1" cx="95.43" cy="7.76" r="7.76"/><polygon class="cls-4" points="61.99 73.68 60.17 73.68 60.17 71.86 59.81 71.86 59.81 73.68 57.99 73.68 57.99 74.04 59.81 74.04 59.81 75.86 60.17 75.86 60.17 74.04 61.99 74.04 61.99 73.68"/><polygon class="cls-4" points="43.99 90.68 42.17 90.68 42.17 88.86 41.81 88.86 41.81 90.68 39.99 90.68 39.99 91.04 41.81 91.04 41.81 92.86 42.17 92.86 42.17 91.04 43.99 91.04 43.99 90.68"/></g></g></svg>