<svg xmlns="http://www.w3.org/2000/svg" viewBox="0 0 926 546.88"><defs><style>.cls-1{fill:#3f3d56;}.cls-2{fill:#f2f2f2;}.cls-3{fill:#ff6584;}.cls-4{fill:#6c63ff;}</style></defs><g id="レイヤー_2" data-name="レイヤー 2"><g id="e4da07c6-3f45-486e-a553-879e7f222c67"><path class="cls-1" d="M926,0V220.88c0,180-145.94,326-326,326H0V326C0,208,62.73,104.58,156.68,47.37a323.92,323.92,0,0,1,50.88-25.18,320,320,0,0,1,31.76-10.53c.21-.07.43-.13.64-.18q4.77-1.31,9.6-2.46l.53-.13A326.4,326.4,0,0,1,310.56.36c2.41-.11,4.82-.2,7.25-.25.87,0,1.75,0,2.64,0Q323.21,0,326,0Z"/><circle class="cls-2" cx="138" cy="89.04" r="7"/><circle class="cls-2" cx="740" cy="363.04" r="7"/><circle class="cls-2" cx="410" cy="138.04" r="7"/><circle class="cls-3" cx="757" cy="96.04" r="4"/><circle class="cls-3" cx="154" cy="296.04" r="4"/><polygon class="cls-2" points="94 380.36 92.18 380.36 92.18 378.54 91.82 378.54 91.82 380.36 90 380.36 90 380.72 91.82 380.72 91.82 382.54 92.18 382.54 92.18 380.72 94 380.72 94 380.36"/><polygon class="cls-2" points="830 202.36 828.18 202.36 828.18 200.54 827.82 200.54 827.82 202.36 826 202.36 826 202.72 827.82 202.72 827.82 204.54 828.18 204.54 828.18 202.72 830 202.72 830 202.36"/><polygon class="cls-2" points="505 282.36 503.18 282.36 503.18 280.54 502.82 280.54 502.82 282.36 501 282.36 501 282.72 502.82 282.72 502.82 284.54 503.18 284.54 503.18 282.72 505 282.72 505 282.36"/><polygon class="cls-2" points="786 292.36 784.18 292.36 784.18 290.54 783.82 290.54 783.82 292.36 782 292.36 782 292.72 783.82 292.72 783.82 294.54 784.18 294.54 784.18 292.72 786 292.72 786 292.36"/><polygon class="cls-2" points="447 335.36 445.18 335.36 445.18 333.54 444.82 333.54 444.82 335.36 443 335.36 443 335.72 444.82 335.72 444.82 337.54 445.18 337.54 445.18 335.72 447 335.72 447 335.36"/><polygon class="cls-2" points="575 337.36 573.18 337.36 573.18 335.54 572.82 335.54 572.82 337.36 571 337.36 571 337.72 572.82 337.72 572.82 339.54 573.18 339.54 573.18 337.72 575 337.72 575 337.36"/><polygon class="cls-2" points="96 167.36 94.18 167.36 94.18 165.54 93.82 165.54 93.82 167.36 92 167.36 92 167.72 93.82 167.72 93.82 169.54 94.18 169.54 94.18 167.72 96 167.72 96 167.36"/><polygon class="cls-2" points="481 151.36 479.18 151.36 479.18 149.54 478.82 149.54 478.82 151.36 477 151.36 477 151.72 478.82 151.72 478.82 153.54 479.18 153.54 479.18 151.72 481 151.72 481 151.36"/><circle class="cls-2" cx="556" cy="66.04" r="4"/><path class="cls-4" d="M846,0h-2a82.08,82.08,0,0,0,82,81.54v-2A80.08,80.08,0,0,1,846,0Z"/><path class="cls-4" d="M809,0h-2A119.12,119.12,0,0,0,926,118.54v-2A117.12,117.12,0,0,1,809,0Z"/><path class="cls-4" d="M771,0h-2c.25,86.36,70.58,156.54,157,156.54v-2C840.68,154.54,771.25,85.26,771,0Z"/></g></g></svg>